<svg width="1600" height="800" viewBox="0 0 1600 800" xmlns="http://www.w3.org/2000/svg">
  <g transform="translate(400, 400)">
    <path d="M 130,-225 A 150 150 0 1 0 0 0 A 150 150 0 1 0 75 20" fill="none" stroke="#94A3B8" stroke-width="2" opacity="0.4" />
    <circle cx="130" cy="-225" r="48" fill="#0EA5E9" />
    <circle cx="75" cy="-280" r="42" fill="#0EA5E9" />
    <circle cx="0" cy="-300" r="36" fill="#0EA5E9" />
    <circle cx="-75" cy="-280" r="31" fill="#0EA5E9" />
    <circle cx="-130" cy="-225" r="26" fill="#0EA5E9" />
    <circle cx="-150" cy="-150" r="22" fill="#0EA5E9" />
    <circle cx="-130" cy="-75" r="18" fill="#0EA5E9" />
    <circle cx="-75" cy="-20" r="15" fill="#0EA5E9" />
    <circle cx="0" cy="0" r="12" fill="#0EA5E9" />
    <circle cx="-75" cy="20" r="10" fill="#0EA5E9" />
    <circle cx="-130" cy="75" r="8" fill="#0EA5E9" />
    <circle cx="-150" cy="150" r="6.5" fill="#0EA5E9" />
    <circle cx="-130" cy="225" r="5" fill="#0EA5E9" />
    <circle cx="-75" cy="280" r="4" fill="#0EA5E9" />
    <circle cx="0" cy="300" r="3.2" fill="#0EA5E9" />
    <circle cx="75" cy="280" r="2.5" fill="#0EA5E9" />
    <circle cx="130" cy="225" r="2" fill="#0EA5E9" />
    <circle cx="150" cy="150" r="1.5" fill="#0EA5E9" />
    <circle cx="130" cy="75" r="1" fill="#0EA5E9" />
    <circle cx="75" cy="20" r="12" fill="#F43F5E" />
    <circle cx="75" cy="20" r="20" fill="none" stroke="#F43F5E" stroke-width="2" opacity="0.3" />
    <circle cx="75" cy="20" r="4" fill="#FFFFFF" />
  </g>
  <g transform="translate(700, 400)">
    <text x="0" y="40" font-family="system-ui, -apple-system, sans-serif" font-size="180" font-weight="800" fill="#0F172A" text-anchor="start" letter-spacing="24">EPSILON</text>
    <text x="10" y="140" font-family="system-ui, -apple-system, sans-serif" font-size="64" font-weight="600" fill="#64748B" text-anchor="start" letter-spacing="12">SOFTWARE</text>
  </g>
</svg>
