<svg width="800" height="400" viewBox="0 0 800 400" fill="none" xmlns="http://www.w3.org/2000/svg">
  <defs>
    <linearGradient id="ctaBgGradient" x1="0%" y1="0%" x2="100%" y2="100%">
      <stop offset="0%" style="stop-color:#1E293B;stop-opacity:0.9" />
      <stop offset="50%" style="stop-color:#334155;stop-opacity:0.8" />
      <stop offset="100%" style="stop-color:#0F172A;stop-opacity:0.9" />
    </linearGradient>
    <linearGradient id="ctaAccent" x1="0%" y1="0%" x2="100%" y2="0%">
      <stop offset="0%" style="stop-color:#3B82F6;stop-opacity:0.3" />
      <stop offset="50%" style="stop-color:#8B5CF6;stop-opacity:0.3" />
      <stop offset="100%" style="stop-color:#10B981;stop-opacity:0.3" />
    </linearGradient>
  </defs>
  
  <!-- Background -->
  <rect width="800" height="400" fill="url(#ctaBgGradient)" rx="20"/>
  
  <!-- Decorative Pattern -->
  <g opacity="0.2">
    <!-- Chain pattern -->
    <g transform="translate(50, 50)">
      <circle cx="0" cy="0" r="15" fill="none" stroke="url(#ctaAccent)" stroke-width="3"/>
      <circle cx="40" cy="0" r="15" fill="none" stroke="url(#ctaAccent)" stroke-width="3"/>
      <circle cx="80" cy="0" r="15" fill="none" stroke="url(#ctaAccent)" stroke-width="3"/>
      <line x1="15" y1="0" x2="25" y2="0" stroke="url(#ctaAccent)" stroke-width="3"/>
      <line x1="55" y1="0" x2="65" y2="0" stroke="url(#ctaAccent)" stroke-width="3"/>
    </g>
    
    <!-- Repeated pattern -->
    <g transform="translate(600, 300)">
      <circle cx="0" cy="0" r="12" fill="none" stroke="url(#ctaAccent)" stroke-width="2"/>
      <circle cx="30" cy="0" r="12" fill="none" stroke="url(#ctaAccent)" stroke-width="2"/>
      <line x1="12" y1="0" x2="18" y2="0" stroke="url(#ctaAccent)" stroke-width="2"/>
    </g>
    
    <!-- Lens elements -->
    <g transform="translate(650, 80)">
      <circle cx="0" cy="0" r="20" fill="none" stroke="url(#ctaAccent)" stroke-width="3"/>
      <line x1="14" y1="14" x2="25" y2="25" stroke="url(#ctaAccent)" stroke-width="3" stroke-linecap="round"/>
    </g>
  </g>
  
  <!-- Flowing lines -->
  <g opacity="0.4">
    <path d="M0 200 Q200 150 400 200 Q600 250 800 200" 
          stroke="url(#ctaAccent)" 
          stroke-width="2" 
          fill="none"/>
    <path d="M0 250 Q200 200 400 250 Q600 300 800 250" 
          stroke="url(#ctaAccent)" 
          stroke-width="2" 
          fill="none"/>
  </g>
  
  <!-- Glow effects -->
  <g opacity="0.6">
    <circle cx="150" cy="100" r="3" fill="url(#ctaAccent)"/>
    <circle cx="650" cy="150" r="2" fill="url(#ctaAccent)"/>
    <circle cx="100" cy="300" r="2" fill="url(#ctaAccent)"/>
    <circle cx="700" cy="320" r="3" fill="url(#ctaAccent)"/>
  </g>
</svg>
